<?xml version="1.0" encoding="UTF-8"?>
<svg id="OBJECTS" xmlns="http://www.w3.org/2000/svg" version="1.1" viewBox="0 0 78 78">
  <defs>
    <style>
      .cls-1 {
        fill: #000;
        stroke-width: 0px;
      }
    </style>
  </defs>
  <path class="cls-1" d="M39,2c20.4,0,37,16.6,37,37s-16.6,37-37,37S2,59.5,2,39,18.6,2,39,2M39,0C17.5,0,0,17.5,0,39s17.5,39,39,39,39-17.5,39-39S60.5,0,39,0h0Z"/>
  <path class="cls-1" d="M53.9,23h-29.9c-3.4,0-6.1,2.7-6.1,6.1v19.8c0,3.4,2.7,6.1,6.1,6.1h29.9c3.4,0,6.1-2.7,6.1-6.1v-19.8c0-3.4-2.7-6.1-6.1-6.1ZM34.5,46.5v-14l12.1,7-12.1,7Z"/>
</svg>